<?xml version="1.0" encoding="utf-8"?>
<!-- Generator: Adobe Illustrator 18.0.0, SVG Export Plug-In . SVG Version: 6.00 Build 0)  -->
<!DOCTYPE svg PUBLIC "-//W3C//DTD SVG 1.1//EN" "http://www.w3.org/Graphics/SVG/1.1/DTD/svg11.dtd">
<svg version="1.1" id="Layer_1" xmlns="http://www.w3.org/2000/svg" xmlns:xlink="http://www.w3.org/1999/xlink" x="0px" y="0px"
	 viewBox="0 0 42 42" enable-background="new 0 0 42 42" xml:space="preserve">
<g>
	<g>
		<polygon fill="#3D6480" points="37.1,32.6 37.1,35.7 31.9,30.5 30.5,31.8 35.8,37.1 32.6,37.1 32.6,39 39,39 39,32.6 		"/>
		<path fill="#F7F7F7" d="M20.4,16.7c-0.8,0-1.1,0.2-1.1,1v0.3c0,0.9,0.3,1,1.1,1.3V16.7z"/>
		<path fill="#F7F7F7" d="M22.6,24.1v-0.4c0-1-0.2-1.1-1.1-1.4v3C22.4,25.3,22.6,25,22.6,24.1z"/>
		<path fill="#F7F7F7" d="M8.7,19.8L7.5,21L21,34.5L34.5,21L21,7.5l-6.6,6.6v5.8H8.7z M17,26.1c0-0.6,0.1-0.9,0.7-0.9
			c0.9,0,1.8,0.1,2.7,0.2v-3.5c-0.3-0.2-0.7-0.3-1-0.5C17.5,20.6,17,20,17,17.9c0-1.5,0.4-2.6,1.9-3.1c0.5-0.2,1-0.3,1.5-0.3v-1.2
			c0-0.6,0.2-0.5,0.7-0.5c0.3,0,0.4,0.2,0.4,0.5v1.2c0.7,0,1.5,0,2.2,0.1c0.5,0.1,1,0.1,1,0.7v0.6c0,0.6-0.1,0.9-0.7,0.9
			c-0.7,0-1.4-0.1-2.1-0.1h-0.4v3.1c1,0.4,2.8,1,3.3,2.1c0.2,0.5,0.2,1,0.2,1.5c0,0.8,0,2-0.4,2.7c-0.6,1.1-2,1.3-3.1,1.4v1.2
			c0,0.3,0,0.6-0.4,0.6h-0.3c-0.4,0-0.4-0.2-0.4-0.6v-1.2c-0.8,0-1.6,0-2.4-0.1c-0.5-0.1-1-0.1-1-0.7V26.1z"/>
		<polygon fill="#3D6480" points="21,5.1 14.4,11.7 14.4,14.1 21,7.5 34.5,21 21,34.5 7.5,21 8.7,19.8 6.3,19.8 5.1,21 21,36.9 
			36.9,21 		"/>
		<path fill="#3D6480" d="M18,27.4c0.8,0.1,1.6,0.1,2.4,0.1v1.2c0,0.4-0.1,0.6,0.4,0.6h0.3c0.4,0,0.4-0.2,0.4-0.6v-1.2
			c1.1-0.1,2.5-0.3,3.1-1.4c0.3-0.7,0.4-1.9,0.4-2.7c0-0.5,0-1-0.2-1.5c-0.4-1.1-2.3-1.7-3.3-2.1v-3.1h0.4c0.7,0,1.4,0.1,2.1,0.1
			c0.7,0,0.7-0.3,0.7-0.9v-0.6c0-0.6-0.6-0.6-1-0.7c-0.7-0.1-1.5-0.1-2.2-0.1v-1.2c0-0.3-0.1-0.5-0.4-0.5c-0.5,0-0.7-0.1-0.7,0.5
			v1.2c-0.5,0-1,0.1-1.5,0.3c-1.5,0.5-1.9,1.6-1.9,3.1c0,2.1,0.5,2.7,2.4,3.5c0.3,0.2,0.7,0.3,1,0.5v3.5c-0.9,0-1.8-0.2-2.7-0.2
			c-0.7,0-0.7,0.3-0.7,0.9v0.6C17,27.3,17.6,27.3,18,27.4z M21.5,22.3c0.9,0.4,1.1,0.4,1.1,1.4v0.4c0,0.9-0.2,1.1-1.1,1.2V22.3z
			 M19.4,18.1v-0.3c0-0.8,0.2-1,1.1-1v2.7C19.7,19.1,19.4,19,19.4,18.1z"/>
		<path fill="#FFFFFF" d="M12.6,18.1V5.6H6.3v12.5H12.6z M7.2,6.5h4.5v1.1H7.2V6.5z M7.2,8.9h4.5V10H7.2V8.9z M7.2,11.3h4.5v1.1H7.2
			V11.3z M9.9,16h1.8v1.3H9.9V16z"/>
		<path fill="#3D6380" d="M8.7,19.8h5.8v-5.8v-2.4V3.8H4.5v16h1.7H8.7z M6.3,18.1V5.6h6.3v12.5H6.3z"/>
		<rect x="7.2" y="6.5" fill="#3D6380" width="4.5" height="1.1"/>
		<rect x="7.2" y="8.9" fill="#3D6380" width="4.5" height="1.1"/>
		<rect x="7.2" y="11.3" fill="#3D6380" width="4.5" height="1.1"/>
		<rect x="9.9" y="16" fill="#3D6380" width="1.8" height="1.3"/>
	</g>
</g>
</svg>
