<?xml version="1.0" encoding="utf-8"?>
<!-- Generator: Adobe Illustrator 18.0.0, SVG Export Plug-In . SVG Version: 6.00 Build 0)  -->
<!DOCTYPE svg PUBLIC "-//W3C//DTD SVG 1.1//EN" "http://www.w3.org/Graphics/SVG/1.1/DTD/svg11.dtd">
<svg version="1.1" id="Layer_1" xmlns="http://www.w3.org/2000/svg" xmlns:xlink="http://www.w3.org/1999/xlink" x="0px" y="0px"
	 viewBox="0 0 42 42" enable-background="new 0 0 42 42" xml:space="preserve">
<g>
	<path fill="#F7F7F7" d="M21,7.6l-6.6,6.6v5.7H8.7l-1.2,1.2L21,34.6l4.1-4.1V26h4.5l4.9-4.9L21,7.6z M24.6,26.2
		c-0.6,1.1-2,1.3-3.1,1.4v1.2c0,0.3,0,0.6-0.4,0.6h-0.3c-0.4,0-0.4-0.2-0.4-0.6v-1.2c-0.8,0-1.6,0-2.4-0.1c-0.5-0.1-1-0.1-1-0.7
		v-0.6c0-0.6,0.1-0.9,0.7-0.9c0.9,0,1.8,0.1,2.7,0.2v-3.5c-0.3-0.2-0.7-0.3-1-0.5C17.5,20.6,17,20.1,17,18c0-1.5,0.4-2.6,1.9-3.1
		c0.5-0.2,1-0.3,1.5-0.3v-1.2c0-0.6,0.2-0.5,0.7-0.5c0.3,0,0.4,0.2,0.4,0.5v1.2c0.7,0,1.5,0,2.2,0.1c0.5,0.1,1,0.1,1,0.7v0.6
		c0,0.6-0.1,0.9-0.7,0.9c-0.7,0-1.4-0.1-2.1-0.1h-0.4v3.1c1,0.4,2.8,1,3.3,2.1c0.2,0.5,0.2,1,0.2,1.5C25,24.3,25,25.5,24.6,26.2z"/>
	<path fill="#F7F7F7" d="M19.4,17.8v0.3c0,0.9,0.3,1,1.1,1.3v-2.7C19.6,16.7,19.4,17,19.4,17.8z"/>
	<path fill="#F7F7F7" d="M21.5,22.4v3c0.9,0,1.1-0.3,1.1-1.2v-0.4C22.6,22.8,22.4,22.8,21.5,22.4z"/>
	<polygon fill="#3D6480" points="14.4,14.1 21,7.6 34.5,21.1 29.6,26 32,26 36.9,21.1 21,5.2 14.4,11.7 	"/>
	<polygon fill="#3D6480" points="25.1,30.5 21,34.6 7.5,21.1 8.7,19.8 6.3,19.8 5.1,21.1 21,37 25.1,32.9 	"/>
	<path fill="#3D6480" d="M21.5,19.9v-3.1h0.4c0.7,0,1.4,0.1,2.1,0.1c0.7,0,0.7-0.3,0.7-0.9v-0.6c0-0.6-0.6-0.6-1-0.7
		c-0.7-0.1-1.5-0.1-2.2-0.1v-1.2c0-0.3-0.1-0.5-0.4-0.5c-0.5,0-0.7-0.1-0.7,0.5v1.2c-0.5,0-1,0.1-1.5,0.3C17.5,15.4,17,16.5,17,18
		c0,2.1,0.5,2.7,2.4,3.5c0.3,0.2,0.7,0.3,1,0.5v3.5c-0.9,0-1.8-0.2-2.7-0.2c-0.7,0-0.7,0.3-0.7,0.9v0.6c0,0.6,0.5,0.6,1,0.7
		c0.8,0.1,1.6,0.1,2.4,0.1v1.2c0,0.4-0.1,0.6,0.4,0.6h0.3c0.4,0,0.4-0.2,0.4-0.6v-1.2c1.1-0.1,2.5-0.3,3.1-1.4
		c0.3-0.7,0.4-1.9,0.4-2.7c0-0.5,0-1-0.2-1.5C24.3,20.9,22.5,20.3,21.5,19.9z M20.4,19.4c-0.8-0.3-1.1-0.4-1.1-1.3v-0.3
		c0-0.8,0.2-1,1.1-1V19.4z M22.6,24.2c0,0.9-0.2,1.1-1.1,1.2v-3c0.9,0.4,1.1,0.4,1.1,1.4V24.2z"/>
	<path fill="#FFFFFF" d="M27,27.9v10.8h10.8V27.9H27z M30.5,37.5l-3.1-3.1l1.3-1.3l1.8,1.8l5.5-5.5l1.3,1.3L30.5,37.5z"/>
	<path fill="#3D6480" d="M26.2,27.1v12.4h12.4V27.1H26.2z M37.8,38.7H27V27.9h10.8V38.7z"/>
	<polygon fill="#3D6480" points="36.1,29.3 30.5,34.8 28.8,33 27.4,34.4 30.5,37.5 37.4,30.6 	"/>
	<path fill="#FFFFFF" d="M12.6,18.1V5.6H6.3v12.5H12.6z M7.2,6.5h4.5v1.1H7.2V6.5z M7.2,8.9h4.5V10H7.2V8.9z M7.2,11.3h4.5v1.1H7.2
		V11.3z M9.9,16h1.8v1.3H9.9V16z"/>
	<path fill="#3D6380" d="M8.7,19.8h5.7v-5.7v-2.4V3.8H4.5v16h1.8H8.7z M6.3,18.1V5.6h6.3v12.5H6.3z"/>
	<rect x="7.2" y="6.5" fill="#3D6380" width="4.5" height="1.1"/>
	<rect x="7.2" y="8.9" fill="#3D6380" width="4.5" height="1.1"/>
	<rect x="7.2" y="11.3" fill="#3D6380" width="4.5" height="1.1"/>
	<rect x="9.9" y="16" fill="#3D6380" width="1.8" height="1.3"/>
</g>
</svg>
