<?xml version="1.0" encoding="utf-8"?>
<!-- Generator: Adobe Illustrator 18.0.0, SVG Export Plug-In . SVG Version: 6.00 Build 0)  -->
<!DOCTYPE svg PUBLIC "-//W3C//DTD SVG 1.1//EN" "http://www.w3.org/Graphics/SVG/1.1/DTD/svg11.dtd">
<svg version="1.1" id="Layer_1" xmlns="http://www.w3.org/2000/svg" xmlns:xlink="http://www.w3.org/1999/xlink" x="0px" y="0px"
	 viewBox="0 0 42 42" enable-background="new 0 0 42 42" xml:space="preserve">
<g>
	<polygon fill-rule="evenodd" clip-rule="evenodd" fill="#FF9C04" points="8,11.4 20,15.4 20,26.6 8,22.2 	"/>
	<polygon fill-rule="evenodd" clip-rule="evenodd" fill="#FF9C04" points="34,11.4 21.9,15.4 21.9,26.6 34,22.2 	"/>
	<polygon fill-rule="evenodd" clip-rule="evenodd" fill="#FF9C04" points="8,10.2 21,14.6 34,10.4 21.1,6.5 	"/>
	<path fill="#FFFFFF" d="M15.5,9.8c0,0.6-1.2,1.1-2.6,1.1s-2.6-0.5-2.6-1.1V8.3h5.3V9.8z"/>
	<ellipse fill="#FF9C04" cx="12.8" cy="8.3" rx="2.6" ry="1.1"/>
	<path fill="#FFFFFF" d="M31.6,9.8c0,0.6-1.2,1.1-2.6,1.1c-1.5,0-2.6-0.5-2.6-1.1V8.3h5.3V9.8z"/>
	<ellipse fill="#FF9C04" cx="29" cy="8.3" rx="2.6" ry="1.1"/>
	<path fill="#FFFFFF" d="M23.3,8.1c0,0.6-1.2,1.1-2.6,1.1c-1.5,0-2.6-0.5-2.6-1.1V6.6h5.3V8.1z"/>
	<ellipse fill="#FF9C04" cx="20.6" cy="6.6" rx="2.6" ry="1.1"/>
	<path fill="#FFFFFF" d="M24.1,11.9c0,0.7-1.4,1.3-3.1,1.3c-1.7,0-3.1-0.6-3.1-1.3v-1.8h6.2V11.9z"/>
	<ellipse fill="#FF9C04" cx="21" cy="10.1" rx="3.1" ry="1.3"/>
</g>
<path fill="#0CB20F" d="M27.5,39V27.9l11.9,5.6L27.5,39z M29.3,30.8v5.3l5.7-2.7L29.3,30.8z"/>
<g>
	<path fill="#3D6480" d="M13.6,31H11v6.9h1.1v-2.4h1.4c1.5,0,2.1-0.7,2.1-1.8v-1C15.6,31.7,15,31,13.6,31z M14.5,33.8
		c0,0.5-0.2,0.7-0.9,0.7h-1.4v-2.4h1.4c0.8,0,0.9,0.2,0.9,0.7V33.8z"/>
	<path fill="#3D6480" d="M6.9,31L6.9,31l-1.4-0.1L3,38h1.2l0.6-1.7h2.7L8.1,38h1.2L6.9,31z M7.2,35.4H5.1l1-3.3L7.2,35.4z"/>
	<path fill="#3D6480" d="M17.8,37.9V31h1.1v6.9H17.8z"/>
</g>
</svg>
